<?xml version="1.0" encoding="UTF-8"?>
<svg id="Layer_1" xmlns="http://www.w3.org/2000/svg" version="1.1" viewBox="0 0 1280 674">
  <!-- Generator: Adobe Illustrator 29.3.0, SVG Export Plug-In . SVG Version: 2.1.0 Build 146)  -->
  <path d="M810.6,1c196.1,0,357.1.3,363.8,1.3,0,4.6-3.2,17.4,4.1,16.2,9.1,0,13.3,4.8,14.6,16,1.7,13.8,6.2,26.7,12.7,36.1,1.7,2.6,2.6,4.4,1.8,4-2.7-1.4,2.7,2.6,6.7,5,8.7,5.5,26,8.9,38.4,9.8v4c0,3.2-.6,4.5-3.2,6.8-1.8,1.6-2.7,2.7-2.1,2.3,15.1.7,25.6,7.1,13.1,21.3-6.8,10.6-9.5,12.8-9.3,28.2-.4,16.1,3.6,20.1,11.9,31.5,21.7,24.2-15.6,33-12.4,60.8,0,12.4,2.8,19.7,11.5,30.2,23.7,25-15.3,34.2-11,62.5,0,11,.2,11.9,3.2,18,3.8,9,16.9,19.6,15.7,28,1.8,7.1-13,20.9-16.3,29-2.3,4.9-2.6,6.7-2.6,17-4.5,25.9,31.6,37.6,14,58.2-45.7,54.7,32.2,74.3-14,84.2-31.8,8.3-55,34.9-58.1,68.6-14.8,33.3-71.8,7.6-540.4,15.5-524.2-7.2-523.7,15-538.6-12,2.6-2.8-22.9-2.5-30.2-2.5-.3-6.6-2.8-8.6,5.1-8,0-20.6-9-49.5-25.9-59.5-9.3-2-19.9-5.6-21.4-7.1-2.3-2.3-3.3-7.1-1.7-7.7,2.5-2.3-23.9-6.3-30.3-6,.2-7.2-1.7-8.3,6.5-15,22.5-18.4,17.2-56.7-6.4-70.2,0-4.2,0-12.8,0-17,28.3-17.8,27.6-56.9,0-76.2v-15.6c6.4-5.7,13.3-11.5,16.7-19.5,3.7-7.4,3.8-7.9,3.8-18.6.7-18.2-8-29.1-20.5-38,0-3.2-.3-16.9.9-17.6,4.9-2.6,13-11.1,15.8-17.8,5.4-7.9,4.7-27.3,1.5-35.2-3.6-9-10.5-16.8-18.1-21.5,0-4.3,0-12.9,0-17.2,23.9-13.3,28.8-51.7,6.5-70.1-7.7-6.8-6.4-7.2-6.5-13.9,44.1.4,79.7-36.1,79.3-79.3-6.6.7-5.1-2.3-5.8-7.9l5.5-.4c11.7,0,410.9-.7,721.9-.7H0v662h1280V1h-469.4Z"/>
</svg>